<?xml version="1.0" encoding="UTF-8" standalone="no"?><!DOCTYPE svg PUBLIC "-//W3C//DTD SVG 1.1//EN" "http://www.w3.org/Graphics/SVG/1.1/DTD/svg11.dtd"><svg xmlns="http://www.w3.org/2000/svg" xmlns:xlink="http://www.w3.org/1999/xlink" version="1.1" width="512" height="512" viewBox="0 0 512 512">
<desc>Created with SVGMaker Editor 2.2.3</desc>
<defs>
</defs>
<g transform="matrix(32 0 0 32 256 256)">
<linearGradient id="SVGID_SVGID_511_0" gradientUnits="userSpaceOnUse" gradientTransform="matrix(1 0 0 1 -8 -8)" x1="1.12" y1="4" x2="14.88" y2="12">
<stop offset="0%" style="stop-color:rgb(0,0,0);stop-opacity: 1"/>
<stop offset="100%" style="stop-color:rgb(66,66,66);stop-opacity: 1"/>
</linearGradient>
<circle transform="translate(0,0)" style="stroke: rgb(255,255,255); stroke-opacity: 0; stroke-width: 0; stroke-linejoin: round; fill: url(#SVGID_SVGID_511_0)" cx="0" cy="0" r="8" vector-effect="non-scaling-stroke"/>
</g>
<path transform="translate(0,0)" style="stroke: rgb(255,255,255); stroke-opacity: 0; stroke-linecap: round; fill: rgb(254,254,254)" stroke-linecap="round" d="M356.4251 127.9869C344.4335 128.46 325.5781 149.6057 316.988 158.2047 309.6991 165.5026 302.6787 173.7659 295.6519 181.3579 295.0285 182.0324 293.8424 182.1698 293.0112 181.8981 280.9237 177.9375 269.8528 176.0131 257.1994 175.8053 246.2308 175.6871 235.2942 177.1319 224.6964 180.1016 222.8167 180.6163 218.1268 182.531 216.506 181.5177 213.7374 179.7851 209.2234 173.5581 206.733 170.8633 197.2126 160.5542 169.3132 129.1825 156.2794 128.0285 154.0192 127.8303 151.8676 128.2555 150.1253 129.8506 142.1426 137.1709 141.0013 162.0279 140.2597 172.5799 140.0327 175.8405 139.6139 179.0851 139.4412 182.352 138.8754 192.9489 138.853 204.9266 139.3837 215.533 139.7354 222.6487 140.0007 229.7836 140.4515 236.8929 140.6657 240.2398 141.596 244.7726 141.1484 247.9724 140.6976 251.1563 138.1785 254.4105 136.9445 257.3705 132.4048 268.287 129.2143 278.7592 128.2361 290.673 127.7885 296.1233 127.9004 301.743 128.8882 307.1229 130.7457 317.2338 136.4042 328.3837 142.6829 336.1739 163.303 363.5626 201.5828 378.6763 233.878 382.6433 269.4852 387.0131 308.0655 380.834 339.3952 362.0474 360.7282 349.2545 380.4275 328.7673 383.618 302.053 385.7504 283.0523 378.2025 264.8666 370.7377 248.1578 370.4084 247.4162 371.0798 238.4593 371.2012 236.9377 371.5753 232.5359 371.8694 228.1246 372.074 223.71 372.9531 204.1658 374.1392 145.6259 362.6495 131.1548 360.8241 128.8532 359.1585 128.297 356.4251 127.9869ZM199.7062 189.8737C197.2126 192.2232 191.0106 195.2025 188.0247 197.3794 183.8144 200.4513 179.3834 203.7055 175.3042 206.9373 172.0913 209.9294 168.8336 212.9182 165.7166 216.0157 163.0664 218.6466 160.4002 221.8784 157.718 224.4133 157.2864 222.2811 157.328 219.9636 157.1841 217.7899 156.4584 207.062 155.4993 165.7072 160.4641 157.9298 160.966 157.1466 162.4398 155.9063 163.319 155.7337 167.5133 155.7561 172.2991 160.3528 175.2179 163.3065 182.7626 170.9337 190.3936 178.6759 197.1647 187.0639 197.9511 188.0388 199.0444 188.9595 199.7062 189.8737ZM309.7566 267.8875C314.3154 268.2551 319.9036 268.5332 323.1069 272.4203 324.7981 274.4725 325.2489 277.081 325.8627 279.6447 324.7118 283.6372 323.8646 286.2297 320.0059 288.4418 315.9139 290.7913 308.7144 290.9032 304.1588 290.4652 299.4498 290.2351 294.2388 290.3374 290.8277 286.4375 288.9543 284.3245 287.9697 281.5083 288.0976 278.6313 288.6538 268.0537 302.116 267.002 309.7566 267.8875ZM208.8813 267.8875C212.7688 268.1975 218.5072 268.6962 221.1255 272.0175 226.2853 278.5738 223.6351 288.0358 215.3583 289.6597 210.6396 290.5835 206.2726 290.3853 201.6243 290.5995 194.0285 289.9218 186.0426 288.5473 186.1801 278.3884 186.3271 267.5422 201.8321 267.0499 208.8813 267.8875ZM259.8848 313.2253C266.1156 313.7143 273.7594 313.6696 277.2824 319.8391 277.3208 320.9963 277.4071 323.154 277.0394 324.244 274.9007 330.5862 269.4276 336.4871 265.2812 341.5506 262.8675 344.5011 259.482 347.7073 255.7448 347.7744 254.5268 347.7968 253.5837 347.3141 252.516 346.7611 247.2027 344.1622 237.3306 330.8067 235.0928 325.0112 232.9668 319.5066 235.8856 315.8721 241.1126 314.7053 246.4482 313.5098 254.4181 312.4037 259.8848 313.2253ZM348.4328 155.8136C350.1528 156.6671 351.3836 157.1722 352.0102 159.1509 353.4392 163.7349 353.7717 168.6609 354.2288 173.4302 355.6067 187.8694 355.5364 202.4077 354.6029 216.8724 354.507 218.4036 354.5677 223.3904 354.2832 224.4069L353.9667 224.701C352.8606 224.4229 352.64 223.189 351.8695 222.3738 346.9751 217.2081 341.5531 211.0546 335.9553 206.7871 326.3997 198.9873 322.3077 196.3661 311.8314 190.1966 313.7432 188.4544 316.2911 185.0532 318.1517 182.9338 322.7393 177.7713 327.4579 172.743 332.3044 167.8489 336.3773 163.7125 342.672 156.6671 348.4328 155.8136Z"/>
</svg>