<?xml version="1.0" encoding="UTF-8" standalone="no"?><!DOCTYPE svg PUBLIC "-//W3C//DTD SVG 1.1//EN" "http://www.w3.org/Graphics/SVG/1.1/DTD/svg11.dtd"><svg xmlns="http://www.w3.org/2000/svg" xmlns:xlink="http://www.w3.org/1999/xlink" version="1.1" width="512" height="512" viewBox="0 0 512 512">
<desc>Created with SVGMaker Editor 2.2.3</desc>
<defs>
</defs>
<g transform="matrix(32 0 0 32 256 256)">
<linearGradient id="SVGID_44" gradientUnits="userSpaceOnUse" gradientTransform="matrix(1 0 0 1 -8 -8)" x1="1.12" y1="4" x2="14.88" y2="12">
<stop offset="0%" style="stop-color:rgba(140,92,255,1);"/>
<stop offset="100%" style="stop-color:rgba(176, 124, 255, 1);"/>
</linearGradient>
<circle transform="translate(0,0)" style="stroke: rgb(255,255,255); stroke-opacity: 0; stroke-width: 0; stroke-linejoin: round; fill: url(#SVGID_44)" cx="0" cy="0" r="8" vector-effect="non-scaling-stroke"/>
</g>
<path transform="translate(0,0)" style="stroke: rgb(255,255,255); stroke-opacity: 0; stroke-linecap: round; fill: rgb(254,254,254)" stroke-linecap="round" d="M356.4249 127.9868C344.4333 128.4599 325.5779 149.6056 316.9878 158.2046 309.6989 165.5025 302.6785 173.7658 295.6517 181.3578 295.0283 182.0323 293.8422 182.1697 293.011 181.898 280.9235 177.9374 269.8526 176.013 257.1992 175.8052 246.2306 175.687 235.294 177.1318 224.6962 180.1015 222.8165 180.6162 218.1266 182.5309 216.5058 181.5176 213.7372 179.785 209.2232 173.558 206.7328 170.8632 197.2124 160.5541 169.313 129.1824 156.2792 128.0284 154.019 127.8302 151.8674 128.2554 150.1251 129.8505 142.1424 137.1708 141.0011 162.0278 140.2595 172.5798 140.0325 175.8404 139.6137 179.085 139.441 182.3519 138.8752 192.9488 138.8528 204.9265 139.3835 215.5329 139.7352 222.6486 140.0005 229.7835 140.4513 236.8928 140.6655 240.2397 141.5958 244.7725 141.1482 247.9723 140.6974 251.1562 138.1783 254.4104 136.9443 257.3704 132.4046 268.2869 129.2141 278.7591 128.2359 290.6729 127.7883 296.1232 127.9002 301.7429 128.888 307.1228 130.7455 317.2337 136.404 328.3836 142.6827 336.1738 163.3028 363.5625 201.5826 378.6762 233.8778 382.6432 269.485 387.013 308.0653 380.8339 339.395 362.0473 360.728 349.2544 380.4273 328.7672 383.6178 302.0529 385.7502 283.0522 378.2023 264.8665 370.7375 248.1577 370.4082 247.4161 371.0796 238.4592 371.201 236.9376 371.5751 232.5358 371.8692 228.1245 372.0738 223.7099 372.9529 204.1657 374.139 145.6258 362.6493 131.1547 360.8239 128.8531 359.1583 128.2969 356.4249 127.9868ZM199.706 189.8736C197.2124 192.2231 191.0104 195.2024 188.0245 197.3793 183.8142 200.4512 179.3832 203.7054 175.304 206.9372 172.0911 209.9293 168.8334 212.9181 165.7164 216.0156 163.0662 218.6465 160.4 221.8783 157.7178 224.4132 157.2862 222.281 157.3278 219.9635 157.1839 217.7898 156.4582 207.0619 155.4991 165.7071 160.4639 157.9297 160.9658 157.1465 162.4396 155.9062 163.3188 155.7336 167.5131 155.756 172.2989 160.3527 175.2177 163.3064 182.7624 170.9336 190.3934 178.6758 197.1645 187.0638 197.9509 188.0387 199.0442 188.9594 199.706 189.8736ZM309.7564 267.8874C314.3152 268.255 319.9034 268.5331 323.1067 272.4202 324.7979 274.4724 325.2487 277.0809 325.8625 279.6446 324.7116 283.6371 323.8644 286.2296 320.0057 288.4417 315.9137 290.7912 308.7142 290.9031 304.1586 290.4651 299.4496 290.235 294.2386 290.3373 290.8275 286.4374 288.9541 284.3244 287.9695 281.5082 288.0974 278.6312 288.6536 268.0536 302.1158 267.0019 309.7564 267.8874ZM208.8811 267.8874C212.7686 268.1974 218.507 268.6961 221.1253 272.0174 226.2851 278.5737 223.6349 288.0357 215.3581 289.6596 210.6394 290.5834 206.2724 290.3852 201.6241 290.5994 194.0283 289.9217 186.0424 288.5472 186.1799 278.3883 186.3269 267.5421 201.8319 267.0498 208.8811 267.8874ZM259.8846 313.2252C266.1154 313.7142 273.7592 313.6695 277.2822 319.839 277.3206 320.9962 277.4069 323.1539 277.0392 324.2439 274.9005 330.5861 269.4274 336.487 265.281 341.5505 262.8673 344.501 259.4818 347.7072 255.7446 347.7743 254.5266 347.7967 253.5835 347.314 252.5158 346.761 247.2025 344.1621 237.3304 330.8066 235.0926 325.0111 232.9666 319.5065 235.8854 315.872 241.1124 314.7052 246.448 313.5097 254.4179 312.4036 259.8846 313.2252ZM348.4326 155.8135C350.1526 156.667 351.3834 157.1721 352.01 159.1508 353.439 163.7348 353.7715 168.6608 354.2286 173.4301 355.6065 187.8693 355.5362 202.4076 354.6027 216.8723 354.5068 218.4035 354.5675 223.3903 354.283 224.4068L353.9665 224.7009C352.8604 224.4228 352.6398 223.1889 351.8693 222.3737 346.9749 217.208 341.5529 211.0545 335.9551 206.787 326.3995 198.9872 322.3075 196.366 311.8312 190.1965 313.743 188.4543 316.2909 185.0531 318.1515 182.9337 322.7391 177.7712 327.4577 172.7429 332.3042 167.8488 336.3771 163.7124 342.6718 156.667 348.4326 155.8135Z"/>
</svg>