<?xml version="1.0" encoding="UTF-8" standalone="no"?><!DOCTYPE svg PUBLIC "-//W3C//DTD SVG 1.1//EN" "http://www.w3.org/Graphics/SVG/1.1/DTD/svg11.dtd"><svg xmlns="http://www.w3.org/2000/svg" xmlns:xlink="http://www.w3.org/1999/xlink" version="1.1" width="16" height="16" viewBox="0 0 16 16">
<desc>Created with SVGMaker Editor 2.2.3</desc>
<defs>
</defs>
<circle transform="translate(0,0)" style="stroke-width: 0; stroke-linejoin: round; fill: rgb(5,5,5)" cx="8" cy="8" r="8" vector-effect="non-scaling-stroke"/>
<path transform="translate(0,0)" style="stroke: rgb(255,255,255); stroke-opacity: 0; stroke-linecap: round; fill: rgb(254,254,254)" stroke-linecap="round" d="M11.1506 4.0047C10.7755 4.0195 10.1857 4.681 9.917 4.95 9.689 5.1783 9.4694 5.4368 9.2496 5.6743 9.2301 5.6954 9.193 5.6997 9.167 5.6912 8.7889 5.5673 8.4426 5.5071 8.0468 5.5006 7.7037 5.4969 7.3616 5.5421 7.0301 5.635 6.9713 5.6511 6.8246 5.711 6.7739 5.6793 6.6873 5.6251 6.5461 5.4303 6.4682 5.346 6.1704 5.0235 5.2977 4.0421 4.89 4.006 4.8193 3.9998 4.752 4.0131 4.6975 4.063 4.4478 4.292 4.4121 5.0696 4.3889 5.3997 4.3818 5.5017 4.3687 5.6032 4.3633 5.7054 4.3456 6.0369 4.3449 6.4116 4.3615 6.7434 4.3725 6.966 4.3808 7.1892 4.3949 7.4116 4.4016 7.5163 4.4307 7.6581 4.4167 7.7582 4.4026 7.8578 4.3238 7.9596 4.2852 8.0522 4.1432 8.3937 4.0434 8.7213 4.0128 9.094 3.9988 9.2645 4.0023 9.4403 4.0332 9.6086 4.0913 9.9249 4.2683 10.2737 4.4647 10.5174 5.1097 11.3742 6.3071 11.847 7.3173 11.9711 8.4311 12.1078 9.6379 11.9145 10.6179 11.3268 11.2852 10.9266 11.9014 10.2857 12.0012 9.45 12.0679 8.8556 11.8318 8.2867 11.5983 7.764 11.588 7.7408 11.609 7.4606 11.6128 7.413 11.6245 7.2753 11.6337 7.1373 11.6401 6.9992 11.6676 6.3878 11.7047 4.5565 11.3453 4.1038 11.2882 4.0318 11.2361 4.0144 11.1506 4.0047ZM6.2484 5.9407C6.1704 6.0142 5.9764 6.1074 5.883 6.1755 5.7513 6.2716 5.6127 6.3734 5.4851 6.4745 5.3846 6.5681 5.2827 6.6616 5.1852 6.7585 5.1023 6.8408 5.0189 6.9419 4.935 7.0212 4.9215 6.9545 4.9228 6.882 4.9183 6.814 4.8956 6.4784 4.8656 5.1847 5.0209 4.9414 5.0366 4.9169 5.0827 4.8781 5.1102 4.8727 5.2414 4.8734 5.3911 5.0172 5.4824 5.1096 5.7184 5.3482 5.9571 5.5904 6.1689 5.8528 6.1935 5.8833 6.2277 5.9121 6.2484 5.9407ZM9.6908 8.3812C9.8334 8.3927 10.0082 8.4014 10.1084 8.523 10.1613 8.5872 10.1754 8.6688 10.1946 8.749 10.1586 8.8739 10.1321 8.955 10.0114 9.0242 9.8834 9.0977 9.6582 9.1012 9.5157 9.0875 9.3684 9.0803 9.2054 9.0835 9.0987 8.9615 9.0401 8.8954 9.0093 8.8073 9.0133 8.7173 9.0307 8.3864 9.4518 8.3535 9.6908 8.3812ZM6.5354 8.3812C6.657 8.3909 6.8365 8.4065 6.9184 8.5104 7.0798 8.7155 6.9969 9.0115 6.738 9.0623 6.5904 9.0912 6.4538 9.085 6.3084 9.0917 6.0708 9.0705 5.821 9.0275 5.8253 8.7097 5.8299 8.3704 6.3149 8.355 6.5354 8.3812ZM8.1308 9.7995C8.3257 9.8148 8.5648 9.8134 8.675 10.0064 8.6762 10.0426 8.6789 10.1101 8.6674 10.1442 8.6005 10.3426 8.4293 10.5272 8.2996 10.6856 8.2241 10.7779 8.1182 10.8782 8.0013 10.8803 7.9632 10.881 7.9337 10.8659 7.9003 10.8486 7.7341 10.7673 7.4253 10.3495 7.3553 10.1682 7.2888 9.996 7.3801 9.8823 7.5436 9.8458 7.7105 9.8084 7.9598 9.7738 8.1308 9.7995ZM10.9006 4.8752C10.9544 4.9019 10.9929 4.9177 11.0125 4.9796 11.0572 5.123 11.0676 5.2771 11.0819 5.4263 11.125 5.878 11.1228 6.3328 11.0936 6.7853 11.0906 6.8332 11.0925 6.9892 11.0836 7.021L11.0737 7.0302C11.0391 7.0215 11.0322 6.9829 11.0081 6.9574 10.855 6.7958 10.6854 6.6033 10.5103 6.4698 10.2114 6.2258 10.0834 6.1438 9.7557 5.9508 9.8155 5.8963 9.8952 5.7899 9.9534 5.7236 10.0969 5.5621 10.2445 5.4048 10.3961 5.2517 10.5235 5.1223 10.7204 4.9019 10.9006 4.8752Z"/>
</svg>