<?xml version="1.0" encoding="UTF-8" standalone="no"?><!DOCTYPE svg PUBLIC "-//W3C//DTD SVG 1.1//EN" "http://www.w3.org/Graphics/SVG/1.1/DTD/svg11.dtd"><svg xmlns="http://www.w3.org/2000/svg" xmlns:xlink="http://www.w3.org/1999/xlink" version="1.1" width="157" height="27" viewBox="0 0 117 27">
  <g transform="matrix(0.0335 0 0 0.0335 73.8285 13.5533)">
    <linearGradient id="SVGID_459" gradientUnits="userSpaceOnUse" gradientTransform="matrix(1 0 0 1 1206.3789 330.1724)" x1="46.106769695684704" y1="151.2094175214503" x2="466.1906713674787" y2="536.1061166669601">
      <stop offset="0%" style="stop-color:rgba(139, 208, 138, 1);"/>
      <stop offset="100%" style="stop-color:rgba(208, 172, 138, 1);"/>
    </linearGradient>
    <path transform=" translate(-1462.5276, -673.8302)" style="fill: url(#SVGID_459)" stroke-linecap="round" d="M 1596.37 330.502 C 1613.52 330.492 1691.66 328.737 1701.69 333.428 C 1707.97 340.48 1705.98 370.119 1705.93 380.979 L 1705.72 445.896 C 1696.25 461.229 1679.09 483.553 1668.07 498.704 L 1600.23 591.794 L 1381.46 891.939 C 1445 891.162 1509.13 892.246 1572.76 891.793 C 1614 891.499 1655.65 891.918 1696.9 891.896 C 1699.25 891.929 1711.36 892.685 1712.76 894.28 C 1722.16 905.044 1717.44 935.08 1717.84 948.158 C 1718.43 967.176 1718.1 983.216 1717.8 1001.87 C 1717.57 1016.2 1709.91 1016.09 1698.27 1016.98 C 1684.56 1017.45 1670.71 1017.14 1657 1017.14 L 1580.46 1017.13 L 1344.75 1017.11 L 1263.34 1017.14 C 1250.01 1017.15 1219.66 1019.35 1209.1 1012.56 C 1204.95 1006.7 1206.69 920.599 1207.03 907.318 C 1214.41 895.341 1228.21 877.426 1236.9 865.523 L 1293.88 787.567 L 1458.79 562.526 C 1484.01 528.381 1511.09 493.426 1535.59 459.097 C 1511.48 458.287 1484.6 458.855 1460.33 458.863 L 1322.42 458.947 C 1307.87 458.96 1240.12 460.749 1230.82 455.769 C 1228.42 452.762 1227.01 447.321 1226.97 443.463 C 1226.72 416.76 1227.41 390.267 1226.85 363.516 C 1226.67 355.173 1225.53 340.825 1230.47 333.753 C 1231.89 331.719 1242.64 330.803 1245.18 330.73 C 1284.16 330.434 1324.35 330.566 1363.25 330.563 L 1596.37 330.502 Z"/>
  </g>
  <g transform="matrix(0.0335 0 0 0.0335 45.4195 13.5183)">
    <linearGradient id="SVGID_460" gradientUnits="userSpaceOnUse" gradientTransform="matrix(1 0 0 1 318.1626 329.4556)" x1="53.208938198592" y1="151.06493609872462" x2="538.001486230208" y2="535.5938643500236">
      <stop offset="0%" style="stop-color:rgba(208,84,223,1);"/>
      <stop offset="100%" style="stop-color:rgba(0,212,255,1);"/>
    </linearGradient>
    <path transform=" translate(-613.7678, -672.785)" style="fill: url(#SVGID_460)" stroke-linecap="round" d="M 325.078 329.46 L 423.246 329.598 C 433.874 329.595 463.101 328.959 471.865 330.4 C 477.404 336.011 495.987 376.562 500.923 386.761 C 526.033 439.199 551.847 491.298 578.358 543.042 C 582.716 551.548 610.17 607.514 614.952 608.302 C 620.795 602.61 636.486 571.073 641.252 562.089 C 667.858 512.585 693.43 462.532 717.951 411.962 L 742.302 362.132 C 746.227 354.083 753.191 339.018 757.846 331.985 L 758.473 331.052 C 764.496 330.756 771.547 330.734 777.6 330.903 C 820.982 332.117 866.201 329.088 909.373 331.387 C 906.006 338.87 897.437 353.237 893.129 360.928 L 858.176 422.978 L 760.651 600.58 C 755.503 611.084 746.791 625.594 740.953 636.091 C 728.633 658.175 716.463 680.341 704.444 702.589 C 698.177 714.162 690.322 726.374 685.72 738.678 C 681.597 749.7 684.025 975.158 683.94 1006.8 C 681.263 1010.79 677.85 1015.57 672.574 1015.66 C 633.978 1016.34 595.042 1016.16 556.452 1015.75 C 545.562 1015.63 543.937 1006.8 543.896 998.633 C 543.789 977.276 543.845 954.734 543.831 933.471 C 543.971 884.998 543.781 836.524 543.263 788.053 C 542.65 745.171 548.539 749.335 527.197 710.835 L 502.409 666.164 L 379.987 444.412 C 360.722 409.872 341.331 375.339 321.686 341.014 C 319.821 337.756 317.787 334.656 318.222 331.323 C 320.115 329.517 322.404 329.693 325.078 329.46 Z"/>
  </g>
  <g transform="matrix(0.0335 0 0 0.0335 59.9637 13.5409)">
    <linearGradient id="SVGID_461" gradientUnits="userSpaceOnUse" gradientTransform="matrix(1 0 0 1 978.4403 330.4285)" x1="12.603817797260726" y1="150.93357125801322" x2="127.43860217230292" y2="535.1281162784105">
      <stop offset="0%" style="stop-color:rgba(0, 212, 255, 1);"/>
      <stop offset="100%" style="stop-color:rgba(139, 208, 138, 1);"/>
    </linearGradient>
    <path transform=" translate(-1048.4615, -673.4594)" style="fill: url(#SVGID_461)" stroke-linecap="round" d="M 985.8 331.113 C 1002.25 329.705 1022.94 331.087 1040.47 330.754 C 1050.38 330.566 1112.05 329.044 1115.33 334.699 C 1119.33 341.582 1117.93 378.347 1117.9 388.559 L 1117.79 475.161 L 1117.81 900.627 C 1117.81 916.008 1120.2 1003.8 1115.97 1010.87 C 1114.04 1014.12 1110.71 1015.28 1107.24 1016.12 L 1032.39 1016.17 C 1019.93 1016.17 989.765 1018.4 980.3 1011.09 C 978.046 1002.66 978.71 973.926 978.705 963.423 L 978.656 883.048 L 978.444 534.668 L 978.462 403.558 C 978.471 383.409 978.301 362.357 978.786 342.154 C 978.917 336.687 981.909 334.307 985.8 331.113 Z"/>
  </g>
</svg>
