<svg xmlns="http://www.w3.org/2000/svg" version="1.1" viewBox="0.00 0.00 512.00 512.00"
     width="512.00" height="512.00">
  <g transform="translate(146, 154) scale(0.31)">
    <path fill="#000000" d="M860.672 332.8c-76.544-72.96-153.088-145.92-229.632-218.88 27.904 97.024 55.552 194.304 83.2 291.328-98.56-32-197.12-63.744-295.68-95.744-71.936 38.656-144.384 76.544-216.576 114.944 27.904-97.28 55.808-194.56 83.456-291.584-76.544 72.96-153.088 145.92-229.632 218.88 6.144 210.688 92.416 411.392 239.36 556.544 138.496 136.448 331.264 215.296 524.8 215.296s386.304-78.848 524.8-215.296c146.944-145.152 233.216-345.856 239.36-556.544-108.032-7.424-216.064-15.104-324.096-22.528zM391.168 590.592c0-23.04 18.688-41.472 41.728-41.472s41.728 18.432 41.728 41.472-18.688 41.472-41.728 41.472c-22.784-0.256-41.472-18.688-41.728-41.472zM599.552 768.256c-32.512-48.128-65.024-96.512-97.536-144.64l95.744-16.384c2.048 0.512 4.096 1.024 5.888 2.048 9.472 4.864 15.36 14.848 15.104 25.344 0.768 9.728-4.096 19.2-12.544 24.832-2.56 1.792-5.376 3.328-8.448 4.608 0.768 34.56 1.28 69.376 1.792 104.192zM757.504 590.592c0 23.04-18.688 41.472-41.728 41.472-22.784-0.256-41.472-18.688-41.728-41.472 0-23.04 18.688-41.472 41.728-41.472 23.04 0 41.728 18.432 41.728 41.472z" />
  </g>
</svg>
