<svg xmlns="http://www.w3.org/2000/svg" version="1.1" viewBox="0.00 0.00 512.00 512.00"
    width="512.00" height="512.00">
    <path fill="#000000" d="M434.9568 28.9359C413.6409 29.7771 380.1335 67.3655 364.8671 82.6508 351.9126 95.6214 339.4355 110.3055 326.9465 123.8009 325.8346 125.0023 323.728 125.2445 322.2538 124.7617 300.7656 117.7231 281.0897 114.2999 258.6056 113.9334 239.1068 113.7209 219.669 116.29 200.8364 121.5686 197.4973 122.4862 189.1615 125.8889 186.2774 124.0851 181.358 121.0083 173.335 109.9407 168.9112 105.1495 151.9919 86.8268 102.4041 31.0651 79.2412 29.0143 75.2236 28.6584 71.397 29.4135 68.3015 32.2503 54.1121 45.2617 52.085 89.4425 50.7688 108.1996 50.3626 113.9966 49.6233 119.7644 49.3146 125.5699 48.3071 144.4033 48.2665 165.6918 49.209 184.5464 49.8386 197.1938 50.3057 209.876 51.1101 222.5111 51.492 228.4596 53.1453 236.5207 52.345 242.2044 51.5488 247.8631 47.0682 253.6496 44.8786 258.9099 36.8069 278.3139 31.1401 296.9247 29.3974 318.102 28.6012 327.7912 28.8003 337.7817 30.5592 347.3438 33.8578 365.3139 43.9159 385.1337 55.0748 398.9761 91.7245 447.66 159.759 474.5219 217.1544 481.5726 280.4398 489.3443 349.0097 478.3611 404.6861 444.9663 442.6011 422.2278 477.6156 385.8124 483.2861 338.329 487.0774 304.5607 473.6614 272.2348 460.3954 242.5345 459.8059 241.2152 461.001 225.2948 461.2151 222.5921 461.8846 214.7669 462.4029 206.9285 462.7693 199.0812 464.3304 164.3428 466.4399 60.2886 446.0187 34.5683 442.7717 30.4792 439.8119 29.4878 434.9568 28.9359ZM156.4239 138.9372C151.9878 143.1154 140.967 148.408 135.6617 152.2782 128.175 157.7388 120.3023 163.5248 113.0512 169.2672 107.3438 174.5865 101.5551 179.8999 96.0141 185.4029 91.302 190.0813 86.5654 195.8244 81.7963 200.3335 81.0285 196.5427 81.1058 192.4239 80.8457 188.5579 79.558 169.4886 77.8519 95.9828 86.6791 82.1586 87.5687 80.7697 90.1889 78.5617 91.7529 78.2579 99.2071 78.2969 107.7134 86.4688 112.901 91.7151 126.3105 105.2737 139.8702 119.0334 151.9066 133.9432 153.3 135.6767 155.2458 137.3154 156.4239 138.9372ZM352.0109 277.6013C360.1155 278.2546 370.0457 278.7509 375.7398 285.6616 378.7429 289.3056 379.5445 293.9466 380.638 298.4986 378.5911 305.5958 377.0868 310.2071 370.2305 314.1397 362.9534 318.314 350.1602 318.5135 342.0637 317.7328 333.6971 317.3256 324.4319 317.5081 318.3703 310.5762 315.0396 306.8176 313.2924 301.816 313.5195 296.6998 314.5046 277.8983 338.4336 276.0316 352.0109 277.6013ZM172.7257 277.6055C179.6356 278.157 189.8359 279.0394 194.4871 284.9446 203.6597 296.5981 198.9475 313.4185 184.2381 316.3032 175.8536 317.945 168.0947 317.5929 159.828 317.9747 146.3291 316.7657 132.1357 314.3263 132.3835 296.2672 132.6434 276.9903 160.2017 276.1122 172.7257 277.6055ZM263.3787 358.1869C274.4517 359.0608 288.0362 358.9802 294.299 369.9421 294.3668 372.0039 294.5176 375.8346 293.8635 377.7733 290.0625 389.0492 280.337 399.536 272.9657 408.5381 268.6767 413.7773 262.6598 419.4789 256.018 419.5976 253.8528 419.64 252.1751 418.7788 250.2781 417.7947 240.8374 413.1791 223.2884 389.4395 219.3156 379.1393 215.5377 369.3525 220.7211 362.8915 230.0114 360.8171 239.4968 358.696 253.6578 356.7276 263.3787 358.1869ZM420.7527 78.3983C423.8067 79.917 425.9971 80.8121 427.1064 84.3332 429.647 92.4788 430.2413 101.2322 431.0509 109.7115 433.5008 135.3746 433.3745 161.2149 431.7195 186.9289 431.5444 189.6473 431.6533 198.5153 431.1508 200.3174L430.5858 200.8409C428.6229 200.3458 428.2297 198.1534 426.8571 196.7038 418.163 187.524 408.5217 176.5875 398.5737 169.0037 381.5938 155.1388 374.322 150.4803 355.6982 139.5141 359.0991 136.4144 363.6237 130.3679 366.9328 126.6008 375.0841 117.4282 383.4722 108.4885 392.0878 99.7915 399.3223 92.4396 410.5134 79.917 420.7527 78.3983Z"/>
</svg>
